# Blender v2.68 (sub 0) OBJ File: 'Node.blend'
# www.blender.org
v 0.687469 0.174857 0.000000
v 0.664031 0.215452 -0.052634
v 0.824728 0.312117 0.000000
v 0.874969 0.499617 0.000000
v 0.828094 0.499617 -0.052634
v 0.623016 0.286494 -0.092931
v 0.713092 0.376570 -0.092932
v 0.746063 0.499617 -0.092932
v 0.124969 0.499617 0.000000
v 0.171844 0.499617 -0.052634
v 0.175209 0.312117 0.000000
v 0.312469 0.174858 0.000000
v 0.335906 0.215453 -0.052634
v 0.499969 0.124617 0.000000
v 0.499969 0.171492 -0.052634
v 0.824728 0.687117 -0.000000
v 0.784134 0.663679 -0.052634
v 0.687469 0.824376 -0.000000
v 0.664032 0.783782 -0.052634
v 0.499969 0.874617 -0.000000
v 0.592508 0.738062 -0.103990
v 0.312469 0.824377 -0.000000
v 0.335907 0.783782 -0.052634
v 0.175210 0.687118 -0.000000
v 0.215804 0.663680 -0.052634
v 0.253875 0.499617 -0.092932
v 0.286845 0.376570 -0.092932
v 0.376922 0.286494 -0.092931
v 0.499969 0.253523 -0.092931
v 0.713092 0.622664 -0.092932
v 0.623016 0.712740 -0.092932
v 0.499969 0.745711 -0.092932
v 0.376922 0.712741 -0.092932
v 0.286846 0.622664 -0.092932
v 0.572647 0.779321 -0.110803
v 0.499969 0.800441 -0.110803
v 0.429147 0.778805 -0.110803
v 0.407430 0.738062 -0.103990
v 0.499969 0.766400 -0.103990
v 0.423059 0.827129 -0.092174
v 0.499969 0.870397 -0.093431
v 0.584095 0.833424 -0.091650
v 0.400976 0.893418 -0.053134
v 0.395628 0.925932 -0.000500
v 0.499969 0.952429 -0.053134
v 0.499969 0.999304 -0.000500
v 0.605550 0.897646 -0.053134
v 0.627071 0.924548 -0.000500
v 0.315399 0.499617 -0.059761
v 0.340126 0.407332 -0.059761
v 0.407684 0.339775 -0.059761
v 0.499969 0.315047 -0.059761
v 0.592254 0.339774 -0.059761
v 0.659811 0.407332 -0.059761
v 0.684539 0.499617 -0.059761
v 0.659811 0.591902 -0.059761
v 0.592254 0.659460 -0.059761
v 0.499969 0.684187 -0.059761
v 0.407684 0.659460 -0.059761
v 0.340126 0.591902 -0.059761
v 0.378845 0.499617 -0.044377
v 0.395072 0.439055 -0.044377
v 0.439407 0.394720 -0.044377
v 0.499969 0.378493 -0.044377
v 0.560531 0.394720 -0.044377
v 0.604865 0.439055 -0.044377
v 0.621093 0.499617 -0.044377
v 0.604866 0.560179 -0.044377
v 0.560531 0.604514 -0.044377
v 0.499969 0.620741 -0.044377
v 0.439407 0.604514 -0.044377
v 0.395072 0.560179 -0.044377
v 0.820783 0.314022 -0.093978
v 0.821767 0.402262 -0.092721
v 0.730719 0.366021 -0.104537
v 0.752447 0.460330 -0.104537
v 0.776873 0.421151 -0.111350
v 0.760199 0.349000 -0.111350
v 0.705570 0.296619 -0.111350
v 0.659908 0.300049 -0.104537
v 0.746701 0.259653 -0.092197
v 0.890216 0.388243 -0.053681
v 0.921048 0.376616 -0.001046
v 0.891824 0.273006 -0.053681
v 0.932419 0.249568 -0.001046
v 0.791591 0.208962 -0.053681
v 0.804128 0.176873 -0.001046
v 0.247482 0.460556 -0.103990
v 0.221681 0.422726 -0.110803
v 0.239729 0.349225 -0.110803
v 0.293877 0.298710 -0.110803
v 0.340021 0.300274 -0.103990
v 0.269210 0.366246 -0.103990
v 0.255072 0.269275 -0.092173
v 0.179146 0.314247 -0.093431
v 0.169102 0.405589 -0.091650
v 0.208706 0.217006 -0.053133
v 0.183222 0.196118 -0.000499
v 0.108104 0.273232 -0.053133
v 0.067509 0.249794 -0.000499
v 0.102757 0.392058 -0.053134
v 0.068699 0.397245 -0.000499
vt 0.590890 0.240241
vt 0.573736 0.192003
vt 0.613731 0.198901
vt 0.822579 0.014336
vt 0.817957 0.041135
vt 0.719823 0.050092
vt 0.710426 0.024572
vt 0.639316 0.106915
vt 0.646383 0.395918
vt 0.663785 0.375020
vt 0.753249 0.416330
vt 0.748627 0.443130
vt 0.807915 0.466598
vt 0.761338 0.369431
vt 0.806721 0.427332
vt 1.000000 0.265709
vt 0.973200 0.261087
vt 0.964244 0.162953
vt 0.952788 0.367953
vt 0.931890 0.350551
vt 0.428871 0.192164
vt 0.418518 0.304306
vt 0.353482 0.396247
vt 0.581442 0.303909
vt 0.606962 0.294512
vt 0.809868 0.088035
vt 0.926301 0.252998
vt 0.893132 0.391622
vt 0.859934 0.430597
vt 0.845909 0.392510
vt 0.694240 0.338448
vt 0.736268 0.094752
vt 0.895318 0.320096
vt 0.177683 0.014481
vt 0.075389 0.061586
vt 0.102921 0.000000
vt 0.651622 0.278067
vt 0.834938 0.362714
vt 0.883785 0.339998
vt 0.783023 0.377101
vt 0.839085 0.373977
vt 0.880130 0.366534
vt 0.802107 0.395582
vt 0.010353 0.153527
vt 0.000161 0.086434
vt 0.918444 0.423284
vt 0.876378 0.475257
vt 0.885776 0.500777
vt 0.927873 0.439914
vt 0.801591 0.485558
vt 0.867890 0.297255
vt 0.854853 0.240676
vt 0.891127 0.246932
vt 0.703316 0.160210
vt 0.675888 0.137369
vt 0.680079 0.210534
vt 0.644905 0.204467
vt 0.886089 0.191732
vt 0.919584 0.179398
vt 0.685117 0.265734
vt 0.717080 0.311019
vt 0.854126 0.146446
vt 0.876966 0.119017
vt 0.767404 0.334256
vt 0.803802 0.123209
vt 0.822604 0.329218
vt 0.748602 0.128247
vt 0.809885 0.294676
vt 0.773660 0.297983
vt 0.740635 0.282733
vt 0.716353 0.216790
vt 0.851547 0.204451
vt 0.719659 0.253015
vt 0.830571 0.174732
vt 0.797546 0.159483
vt 0.761321 0.162789
vt 0.839604 0.273701
vt 0.731602 0.183765
vt 0.555309 0.113997
vt 0.568567 0.128953
vt 0.526836 0.183915
vt 0.500037 0.179293
vt 0.531697 0.246182
vt 0.550813 0.246330
vt 0.658520 0.152145
vt 0.633194 0.202258
vt 0.632973 0.159432
vt 0.640271 0.257958
vt 0.619118 0.241525
vt 0.603169 0.147552
vt 0.047105 0.367962
vt 0.139046 0.432999
vt 0.072151 0.439933
vt 0.618418 0.089512
vt 0.251188 0.443352
vt 0.198385 0.485709
vt 0.872755 0.054233
vt 0.923107 0.063496
vt 0.897136 0.094684
vt 0.946887 0.111212
vt 0.884498 0.109861
vt 0.832721 0.088139
vt 0.857529 0.078038
vt 0.915234 0.156850
vt 0.921697 0.131083
vt 0.953562 0.026924
vt 0.980294 0.090545
vt 0.887520 0.016481
vt 0.970964 0.006026
vt 0.897207 0.000000
vt 0.999877 0.086541
vt 0.989764 0.153556
vt 0.468307 0.246896
vt 0.381766 0.089870
vt 0.444833 0.114686
vt 0.000000 0.265668
vt 0.289825 0.024834
vt 0.029157 0.005949
vt 0.114185 0.500840
vt 0.500037 0.180040
vn 0.281241 0.010538 -0.959579
vn -0.196211 -0.732266 -0.652141
vn 0.196209 -0.732267 -0.652140
vn 0.536057 0.536055 -0.652141
vn 0.713695 0.363934 -0.598491
vn 0.517856 0.175901 -0.837188
vn -0.732267 0.196210 -0.652141
vn -0.536056 0.536056 -0.652141
vn -0.000000 0.000000 1.000000
vn 0.732266 0.196209 -0.652141
vn -0.117327 -0.437870 -0.891350
vn -0.437870 0.117327 -0.891350
vn -0.149748 0.238291 -0.959580
vn 0.320543 0.320542 -0.891350
vn 0.117326 -0.437871 -0.891349
vn -0.320542 0.320543 -0.891350
vn -0.001688 0.006299 0.999979
vn 0.437870 0.117326 -0.891350
vn 0.125469 0.239104 -0.962854
vn 0.143715 -0.536354 -0.831667
vn 0.446840 0.153466 -0.881352
vn -0.474535 0.197081 -0.857890
vn 0.059903 -0.195617 -0.978849
vn -0.058131 -0.189829 -0.980095
vn 0.001593 0.005946 0.999981
vn -0.486087 0.201691 -0.850318
vn -0.143716 -0.536354 -0.831667
vn -0.680861 0.401300 -0.612688
vn 0.223016 0.429810 -0.874944
vn -0.254200 0.426431 -0.868066
vn -0.464923 0.661164 -0.588820
vn 0.387568 0.746946 -0.540242
vn 0.126145 -0.470781 -0.873185
vn 0.172160 -0.172161 -0.969908
vn -0.126145 0.470780 -0.873186
vn 0.344635 -0.344636 -0.873185
vn -0.344635 0.344635 -0.873186
vn 0.470780 -0.126146 -0.873186
vn -0.470780 0.126145 -0.873186
vn -0.470781 -0.126146 -0.873185
vn 0.470780 0.126144 -0.873186
vn -0.344636 -0.344636 -0.873185
vn 0.344635 0.344634 -0.873186
vn -0.126146 -0.470781 -0.873186
vn 0.126145 0.470780 -0.873186
vn 0.000000 -0.000000 -1.000000
vn -0.172160 0.172160 -0.969908
vn 0.235176 -0.063016 -0.969908
vn -0.235176 0.063015 -0.969908
vn -0.235176 -0.063016 -0.969908
vn 0.235175 0.063014 -0.969908
vn -0.172161 -0.172161 -0.969908
vn 0.172161 0.172160 -0.969908
vn -0.063015 -0.235176 -0.969908
vn 0.063016 0.235175 -0.969908
vn 0.063015 -0.235176 -0.969908
vn -0.063015 0.235175 -0.969908
vn 0.453090 -0.709118 -0.540241
vn 0.805047 0.072051 -0.588820
vn 0.496401 0.006926 -0.868066
vn 0.260718 -0.408043 -0.874944
vn -0.135330 0.145257 -0.980095
vn -0.199360 0.045931 -0.978849
vn 0.144336 -0.228212 -0.962853
vn 0.013239 -0.003547 0.999906
vn -0.111870 -0.538374 -0.835248
vn -0.045643 -0.800747 -0.597262
vn 0.687833 0.389415 -0.612570
vn -0.406774 0.406774 -0.817967
vn 0.417330 0.322679 -0.849537
vn 0.009127 -0.009127 0.999917
vn 0.412726 0.319091 -0.853134
vn -0.098658 -0.478510 -0.872522
vn -0.559439 0.149901 -0.815204
vn -0.131493 -0.248832 -0.959579
vn -0.269805 -0.010894 -0.962853
vn 0.139457 0.149685 -0.978849
vn 0.193461 0.044571 -0.980095
vn -0.483735 -0.021769 -0.874944
vn -0.242201 -0.433360 -0.868066
vn -0.340124 -0.733218 -0.588818
vn -0.840659 -0.037830 -0.540242
vn -0.672517 0.434747 -0.598930
vn -0.411434 0.359519 -0.837537
vn -0.004624 -0.004623 0.999979
vn 0.396167 0.396166 -0.828314
vn -0.354956 0.307985 -0.882696
vn 0.066693 -0.509728 -0.857747
vn -0.005966 -0.001598 0.999981
vn 0.068451 -0.521840 -0.850293
vn 0.542626 0.145395 -0.827295
vn -0.007246 -0.790262 -0.612726
vn 0.352568 -0.081477 -0.932232
vn -0.196210 -0.732267 -0.652140
vn 0.196210 -0.732267 -0.652140
vn 0.731114 0.438216 -0.522915
vn 0.556729 0.282514 -0.781178
vn -0.732266 0.196210 -0.652141
vn -0.536056 0.536057 -0.652141
vn 0.000000 0.000001 1.000000
vn 0.732267 0.196209 -0.652141
vn -0.117327 -0.437870 -0.891349
vn -0.105724 0.346070 -0.932233
vn 0.320544 0.320542 -0.891350
vn 0.117327 -0.437870 -0.891349
vn -0.002816 0.004005 0.999988
vn 0.091551 0.315043 -0.944652
vn 0.142870 -0.466552 -0.872879
vn 0.592374 0.154575 -0.790696
vn -0.628345 0.209644 -0.749154
vn 0.059848 -0.195903 -0.978795
vn -0.056939 -0.195936 -0.978962
vn 0.002355 0.004005 0.999989
vn -0.514235 0.301541 -0.802892
vn -0.142871 -0.466552 -0.872879
vn -0.701448 0.572293 -0.424796
vn 0.215405 0.448329 -0.867526
vn -0.254157 0.426543 -0.868024
vn -0.442419 0.742178 -0.503425
vn 0.402144 0.683736 -0.608922
vn 0.126144 -0.470781 -0.873186
vn -0.344634 0.344635 -0.873186
vn -0.470780 -0.126145 -0.873186
vn -0.344636 -0.344635 -0.873185
vn 0.344635 0.344635 -0.873186
vn -0.126145 -0.470781 -0.873185
vn 0.126146 0.470779 -0.873186
vn -0.000000 -0.000001 -1.000000
vn -0.235175 0.063015 -0.969908
vn -0.235176 -0.063015 -0.969908
vn 0.235176 0.063015 -0.969908
vn 0.391060 -0.690136 -0.608921
vn 0.863955 0.012055 -0.503424
vn 0.496475 0.006833 -0.868024
vn 0.280562 -0.410712 -0.867525
vn -0.141215 0.147278 -0.978962
vn -0.199580 0.046121 -0.978796
vn 0.227059 -0.236808 -0.944651
vn 0.010250 0.000918 0.999947
vn -0.038233 -0.625796 -0.779049
vn 0.010049 -0.852726 -0.522262
vn 0.846469 0.320727 -0.425000
vn -0.345556 0.370902 -0.861988
vn 0.518252 0.296607 -0.802146
vn 0.004799 -0.008468 0.999953
vn 0.495730 0.439338 -0.749155
vn -0.162321 -0.590298 -0.790696
vn -0.497525 0.114626 -0.859843
vn -0.246844 -0.264596 -0.932232
vn -0.318611 -0.078236 -0.944651
vn 0.139732 0.149780 -0.978796
vn 0.198155 0.048657 -0.978962
vn -0.495968 -0.037620 -0.867526
vn -0.242318 -0.433378 -0.868024
vn -0.421536 -0.754236 -0.503424
vn -0.793205 0.006398 -0.608921
vn -0.745747 0.412460 -0.523200
vn -0.523075 0.339607 -0.781703
vn -0.002063 -0.004446 0.999988
vn 0.335279 0.359870 -0.870679
vn -0.430053 0.435721 -0.790697
vn 0.132615 -0.648985 -0.749154
vn -0.004658 0.000038 0.999989
vn -0.004127 -0.596053 -0.802935
vn 0.480643 0.110735 -0.869897
vn -0.145328 -0.893476 -0.424947
s off
f 74/1/1 73/2/1 78/3/1
f 12/4/2 13/5/2 15/6/2
f 14/7/3 15/6/3 2/8/3
f 16/9/4 17/10/4 19/11/4
f 18/12/5 19/11/5 47/13/5
f 19/11/6 31/14/6 42/15/6
f 24/16/7 25/17/7 10/18/7
f 22/19/8 23/20/8 25/17/8
f 11/21/9 12/22/9 14/23/9
f 4/24/10 5/25/10 17/10/10
f 15/6/11 13/5/11 28/26/11
f 10/18/12 25/17/12 34/27/12
f 40/28/13 41/29/13 36/30/13
f 19/11/14 17/10/14 30/31/14
f 2/8/15 15/6/15 29/32/15
f 25/17/16 23/20/16 33/33/16
f 22/34/17 20/35/17 44/36/17
f 17/10/18 5/25/18 8/37/18
f 41/29/19 42/15/19 36/30/19
f 32/38/20 33/33/20 38/39/20
f 42/15/21 31/14/21 21/40/21
f 33/33/22 40/28/22 38/39/22
f 39/41/23 38/39/23 37/42/23
f 21/40/24 39/41/24 35/43/24
f 20/35/25 18/44/25 48/45/25
f 33/33/26 23/20/26 40/28/26
f 31/14/27 32/38/27 21/40/27
f 23/20/28 22/19/28 43/46/28
f 45/47/29 47/13/29 41/29/29
f 43/46/30 45/47/30 41/29/30
f 46/48/31 45/47/31 44/49/31
f 48/50/32 47/13/32 45/47/32
f 32/38/33 59/51/33 33/33/33
f 59/51/34 72/52/34 60/53/34
f 29/32/35 53/54/35 6/55/35
f 33/33/36 60/53/36 34/27/36
f 6/55/37 54/56/37 7/57/37
f 34/27/38 49/58/38 26/59/38
f 7/57/39 55/60/39 8/37/39
f 8/37/40 56/61/40 30/31/40
f 26/59/41 50/62/41 27/63/41
f 30/31/42 57/64/42 31/14/42
f 27/63/43 51/65/43 28/26/43
f 31/14/44 58/66/44 32/38/44
f 28/26/45 52/67/45 29/32/45
f 70/68/46 69/69/46 68/70/46
f 53/54/47 66/71/47 54/56/47
f 60/53/48 61/72/48 49/58/48
f 54/56/49 67/73/49 55/60/49
f 55/60/50 68/70/50 56/61/50
f 49/58/51 62/74/51 50/62/51
f 56/61/52 69/69/52 57/64/52
f 50/62/53 63/75/53 51/65/53
f 57/64/54 70/68/54 58/66/54
f 51/65/55 64/76/55 52/67/55
f 58/66/56 71/77/56 59/51/56
f 52/67/57 65/78/57 53/54/57
f 87/79/58 86/80/58 84/81/58
f 85/82/59 84/81/59 83/83/59
f 82/84/60 84/81/60 73/2/60
f 84/81/61 86/80/61 73/2/61
f 80/85/62 75/86/62 79/87/62
f 75/86/63 76/88/63 77/89/63
f 73/2/64 81/90/64 78/3/64
f 4/91/65 3/92/65 83/93/65
f 2/8/66 6/55/66 81/90/66
f 1/94/67 2/8/67 86/80/67
f 5/25/68 4/24/68 82/84/68
f 6/55/69 7/57/69 80/85/69
f 8/37/70 5/25/70 74/1/70
f 3/92/71 1/95/71 87/96/71
f 8/37/72 74/1/72 76/88/72
f 81/90/73 6/55/73 80/85/73
f 7/57/74 8/37/74 76/88/74
f 94/97/75 95/98/75 90/99/75
f 95/98/76 96/100/76 90/99/76
f 93/101/77 92/102/77 91/103/77
f 88/104/78 93/101/78 89/105/78
f 99/106/79 101/107/79 95/98/79
f 97/108/80 99/106/80 95/98/80
f 100/109/81 99/106/81 98/110/81
f 102/111/82 101/107/82 99/106/82
f 9/112/83 10/18/83 101/107/83
f 10/18/84 26/59/84 96/100/84
f 12/22/85 11/21/85 98/113/85
f 27/63/86 28/26/86 92/102/86
f 96/100/87 26/59/87 88/104/87
f 28/26/88 94/97/88 92/102/88
f 11/21/89 9/114/89 102/115/89
f 28/26/90 13/5/90 94/97/90
f 26/59/91 27/63/91 88/104/91
f 13/5/92 12/4/92 97/108/92
f 77/89/93 74/1/93 78/3/93
f 14/7/94 12/4/94 15/6/94
f 1/94/95 14/7/95 2/8/95
f 18/12/4 16/9/4 19/11/4
f 48/50/96 18/12/96 47/13/96
f 47/13/97 19/11/97 42/15/97
f 9/112/98 24/16/98 10/18/98
f 24/16/99 22/19/99 25/17/99
f 20/35/100 16/116/100 18/44/100
f 20/35/100 4/91/100 16/116/100
f 20/35/100 3/92/100 4/91/100
f 20/35/100 1/95/100 3/92/100
f 9/114/100 11/21/100 24/117/100
f 11/21/100 14/23/100 24/117/100
f 14/23/100 1/95/100 24/117/100
f 1/95/100 20/35/100 24/117/100
f 20/35/100 22/34/100 24/117/100
f 16/9/101 4/24/101 17/10/101
f 29/32/102 15/6/102 28/26/102
f 26/59/12 10/18/12 34/27/12
f 37/42/103 40/28/103 36/30/103
f 31/14/104 19/11/104 30/31/104
f 6/55/105 2/8/105 29/32/105
f 34/27/16 25/17/16 33/33/16
f 20/35/106 46/118/106 44/36/106
f 30/31/18 17/10/18 8/37/18
f 42/15/107 35/43/107 36/30/107
f 39/41/108 32/38/108 38/39/108
f 35/43/109 42/15/109 21/40/109
f 40/28/110 37/42/110 38/39/110
f 36/30/111 39/41/111 37/42/111
f 39/41/112 36/30/112 35/43/112
f 46/118/113 20/35/113 48/45/113
f 23/20/114 43/46/114 40/28/114
f 32/38/115 39/41/115 21/40/115
f 22/19/116 44/49/116 43/46/116
f 47/13/117 42/15/117 41/29/117
f 40/28/118 43/46/118 41/29/118
f 45/47/119 43/46/119 44/49/119
f 46/48/120 48/50/120 45/47/120
f 58/66/121 59/51/121 32/38/121
f 71/77/34 72/52/34 59/51/34
f 52/67/35 53/54/35 29/32/35
f 59/51/36 60/53/36 33/33/36
f 53/54/122 54/56/122 6/55/122
f 60/53/38 49/58/38 34/27/38
f 54/56/39 55/60/39 7/57/39
f 55/60/123 56/61/123 8/37/123
f 49/58/41 50/62/41 26/59/41
f 56/61/124 57/64/124 30/31/124
f 50/62/125 51/65/125 27/63/125
f 57/64/126 58/66/126 31/14/126
f 51/65/127 52/67/127 28/26/127
f 71/77/128 70/68/128 68/70/128
f 71/77/46 68/70/46 67/73/46
f 62/74/46 61/72/46 72/52/46
f 71/77/128 67/73/128 66/71/128
f 65/78/128 71/77/128 66/71/128
f 65/78/128 72/52/128 71/77/128
f 65/78/46 62/74/46 72/52/46
f 64/76/128 62/74/128 65/78/128
f 63/75/46 62/74/46 64/76/46
f 65/78/47 66/71/47 53/54/47
f 72/52/48 61/72/48 60/53/48
f 66/71/129 67/73/129 54/56/129
f 67/73/130 68/70/130 55/60/130
f 61/72/131 62/74/131 49/58/131
f 68/70/52 69/69/52 56/61/52
f 62/74/53 63/75/53 50/62/53
f 69/69/54 70/68/54 57/64/54
f 63/75/55 64/76/55 51/65/55
f 70/68/56 71/77/56 58/66/56
f 64/76/57 65/78/57 52/67/57
f 85/82/132 87/79/132 84/81/132
f 84/81/133 82/84/133 83/83/133
f 74/1/134 82/84/134 73/2/134
f 86/80/135 81/90/135 73/2/135
f 75/86/136 78/3/136 79/87/136
f 78/3/137 75/86/137 77/89/137
f 81/90/138 79/87/138 78/3/138
f 3/92/139 85/119/139 83/93/139
f 86/80/140 2/8/140 81/90/140
f 87/79/141 1/94/141 86/80/141
f 4/24/142 83/83/142 82/84/142
f 7/57/143 75/86/143 80/85/143
f 5/25/144 82/84/144 74/1/144
f 85/119/145 3/92/145 87/96/145
f 74/1/146 77/89/146 76/88/146
f 79/87/147 81/90/147 80/85/147
f 75/86/148 7/57/148 76/88/148
f 91/103/149 94/97/149 90/99/149
f 96/100/150 89/105/150 90/99/150
f 90/99/151 93/101/151 91/103/151
f 93/101/152 90/99/152 89/105/152
f 101/107/153 96/100/153 95/98/153
f 94/97/154 97/108/154 95/98/154
f 99/106/155 97/108/155 98/110/155
f 100/109/156 102/111/156 99/106/156
f 102/111/157 9/112/157 101/107/157
f 101/107/158 10/18/158 96/100/158
f 11/21/159 100/120/159 98/113/159
f 93/101/160 27/63/160 92/102/160
f 89/105/161 96/100/161 88/104/161
f 94/97/162 91/103/162 92/102/162
f 100/120/163 11/21/163 102/115/163
f 13/5/164 97/108/164 94/97/164
f 27/63/165 93/101/165 88/104/165
f 12/4/166 98/110/166 97/108/166
