# Blender v2.68 (sub 0) OBJ File: 'Node.blend'
# www.blender.org
v 0.687469 0.000000 -0.825143
v 0.664031 0.052634 -0.784548
v 0.824728 0.000000 -0.687883
v 0.874969 0.000000 -0.500383
v 0.828094 0.052634 -0.500383
v 0.623016 0.092932 -0.713507
v 0.713092 0.092932 -0.623430
v 0.746063 0.092932 -0.500383
v 0.124969 0.000000 -0.500383
v 0.171844 0.052634 -0.500383
v 0.175209 0.000000 -0.687883
v 0.312469 0.000000 -0.825143
v 0.335906 0.052634 -0.784548
v 0.499969 0.000000 -0.875383
v 0.499969 0.052634 -0.828508
v 0.824728 0.000000 -0.312883
v 0.784134 0.052634 -0.336321
v 0.687469 0.000000 -0.175624
v 0.664032 0.052634 -0.216219
v 0.499969 0.000000 -0.125383
v 0.592508 0.103990 -0.261938
v 0.312469 0.000000 -0.175623
v 0.335907 0.052634 -0.216218
v 0.175210 0.000000 -0.312883
v 0.215804 0.052634 -0.336320
v 0.253875 0.092932 -0.500383
v 0.286845 0.092932 -0.623430
v 0.376922 0.092932 -0.713507
v 0.499969 0.092932 -0.746477
v 0.713092 0.092932 -0.377337
v 0.623016 0.092932 -0.287260
v 0.499969 0.092932 -0.254289
v 0.376922 0.092932 -0.287260
v 0.286846 0.092932 -0.377336
v 0.572647 0.110803 -0.220679
v 0.499969 0.110803 -0.199559
v 0.429147 0.110803 -0.221195
v 0.407430 0.103990 -0.261938
v 0.499969 0.103990 -0.233600
v 0.423059 0.092173 -0.172871
v 0.499969 0.093431 -0.129603
v 0.584095 0.091650 -0.166576
v 0.400976 0.053134 -0.106583
v 0.395628 0.000499 -0.074068
v 0.499969 0.053134 -0.047572
v 0.499969 0.000499 -0.000697
v 0.605550 0.053134 -0.102354
v 0.627071 0.000499 -0.075452
v 0.315399 0.059761 -0.500383
v 0.340126 0.059761 -0.592668
v 0.407684 0.059761 -0.660226
v 0.499969 0.059761 -0.684953
v 0.592254 0.059761 -0.660226
v 0.659811 0.059761 -0.592668
v 0.684539 0.059761 -0.500383
v 0.659811 0.059761 -0.408098
v 0.592254 0.059761 -0.340541
v 0.499969 0.059761 -0.315813
v 0.407684 0.059761 -0.340540
v 0.340126 0.059761 -0.408098
v 0.378845 0.044377 -0.500383
v 0.395072 0.044377 -0.560945
v 0.439407 0.044377 -0.605280
v 0.499969 0.044377 -0.621507
v 0.560531 0.044377 -0.605280
v 0.604865 0.044377 -0.560945
v 0.621093 0.044377 -0.500383
v 0.604866 0.044377 -0.439821
v 0.560531 0.044377 -0.395487
v 0.499969 0.044377 -0.379259
v 0.439407 0.044377 -0.395486
v 0.395072 0.044377 -0.439821
v 0.820783 0.093978 -0.685979
v 0.821767 0.092721 -0.597738
v 0.730719 0.104537 -0.633980
v 0.752447 0.104537 -0.539670
v 0.776873 0.111350 -0.578849
v 0.760199 0.111350 -0.651000
v 0.705570 0.111350 -0.703381
v 0.659908 0.104537 -0.699951
v 0.746701 0.092197 -0.740347
v 0.890216 0.053681 -0.611758
v 0.921048 0.001047 -0.623384
v 0.891824 0.053681 -0.726994
v 0.932419 0.001047 -0.750432
v 0.791591 0.053681 -0.791038
v 0.804128 0.001047 -0.823127
v 0.247482 0.103990 -0.539445
v 0.221681 0.110803 -0.577274
v 0.239729 0.110803 -0.650775
v 0.293877 0.110803 -0.701290
v 0.340021 0.103990 -0.699726
v 0.269210 0.103990 -0.633754
v 0.255072 0.092173 -0.730725
v 0.179146 0.093431 -0.685753
v 0.169102 0.091650 -0.594412
v 0.208706 0.053134 -0.782994
v 0.183222 0.000499 -0.803883
v 0.108104 0.053134 -0.726769
v 0.067509 0.000499 -0.750206
v 0.102757 0.053134 -0.607942
v 0.068699 0.000499 -0.602755
vt 0.590890 0.240241
vt 0.573736 0.192003
vt 0.613731 0.198901
vt 0.822579 0.014336
vt 0.817957 0.041135
vt 0.719823 0.050092
vt 0.710426 0.024572
vt 0.639316 0.106915
vt 0.646383 0.395918
vt 0.663785 0.375020
vt 0.753249 0.416330
vt 0.748627 0.443130
vt 0.807915 0.466598
vt 0.761338 0.369431
vt 0.806721 0.427332
vt 1.000000 0.265709
vt 0.973200 0.261087
vt 0.964244 0.162953
vt 0.952788 0.367953
vt 0.931890 0.350551
vt 0.428871 0.192164
vt 0.418518 0.304306
vt 0.353482 0.396247
vt 0.581442 0.303909
vt 0.606962 0.294512
vt 0.809868 0.088035
vt 0.926301 0.252998
vt 0.893132 0.391622
vt 0.859934 0.430597
vt 0.845909 0.392510
vt 0.694240 0.338448
vt 0.736268 0.094752
vt 0.895318 0.320096
vt 0.177683 0.014481
vt 0.075389 0.061586
vt 0.102921 0.000000
vt 0.651622 0.278067
vt 0.834938 0.362714
vt 0.883785 0.339998
vt 0.783023 0.377101
vt 0.839085 0.373977
vt 0.880130 0.366534
vt 0.802107 0.395582
vt 0.010353 0.153527
vt 0.000161 0.086434
vt 0.918444 0.423284
vt 0.876378 0.475257
vt 0.885776 0.500777
vt 0.927873 0.439914
vt 0.801591 0.485558
vt 0.867890 0.297255
vt 0.854853 0.240676
vt 0.891127 0.246932
vt 0.703316 0.160210
vt 0.675888 0.137369
vt 0.680079 0.210534
vt 0.644905 0.204467
vt 0.886089 0.191732
vt 0.919584 0.179398
vt 0.685117 0.265734
vt 0.717080 0.311019
vt 0.854126 0.146446
vt 0.876966 0.119017
vt 0.767404 0.334256
vt 0.803802 0.123209
vt 0.822604 0.329218
vt 0.748602 0.128247
vt 0.809885 0.294676
vt 0.773660 0.297983
vt 0.740635 0.282733
vt 0.716353 0.216790
vt 0.851547 0.204451
vt 0.719659 0.253015
vt 0.830571 0.174732
vt 0.797546 0.159483
vt 0.761321 0.162789
vt 0.839604 0.273701
vt 0.731602 0.183765
vt 0.555309 0.113997
vt 0.568567 0.128953
vt 0.526836 0.183915
vt 0.500037 0.179293
vt 0.531697 0.246182
vt 0.550813 0.246330
vt 0.658520 0.152145
vt 0.633194 0.202258
vt 0.632973 0.159432
vt 0.640271 0.257958
vt 0.619118 0.241525
vt 0.603169 0.147552
vt 0.047105 0.367962
vt 0.139046 0.432999
vt 0.072151 0.439933
vt 0.618418 0.089512
vt 0.251188 0.443352
vt 0.198385 0.485709
vt 0.872755 0.054233
vt 0.923107 0.063496
vt 0.897136 0.094684
vt 0.946887 0.111212
vt 0.884498 0.109861
vt 0.832721 0.088139
vt 0.857529 0.078038
vt 0.915234 0.156850
vt 0.921697 0.131083
vt 0.953562 0.026924
vt 0.980294 0.090545
vt 0.887520 0.016481
vt 0.970964 0.006026
vt 0.897207 0.000000
vt 0.999877 0.086541
vt 0.989764 0.153556
vt 0.468307 0.246896
vt 0.381766 0.089870
vt 0.444833 0.114686
vt 0.000000 0.265668
vt 0.289825 0.024834
vt 0.029157 0.005949
vt 0.114185 0.500840
vt 0.500037 0.180040
vn 0.281241 0.959579 0.010539
vn -0.196211 0.652141 -0.732266
vn 0.196209 0.652141 -0.732266
vn 0.536057 0.652141 0.536056
vn 0.713695 0.598491 0.363935
vn 0.517856 0.837188 0.175901
vn -0.732266 0.652141 0.196211
vn -0.536056 0.652141 0.536057
vn 0.000000 -1.000000 0.000000
vn 0.732266 0.652141 0.196210
vn -0.117327 0.891350 -0.437870
vn -0.437870 0.891350 0.117327
vn -0.149748 0.959579 0.238292
vn 0.320543 0.891350 0.320542
vn 0.117326 0.891350 -0.437870
vn -0.320542 0.891350 0.320543
vn -0.001688 -0.999979 0.006299
vn 0.437870 0.891350 0.117327
vn 0.125469 0.962853 0.239105
vn 0.143715 0.831667 -0.536354
vn 0.446841 0.881352 0.153467
vn -0.474535 0.857890 0.197082
vn 0.059903 0.978849 -0.195616
vn -0.058131 0.980095 -0.189828
vn 0.001593 -0.999981 0.005945
vn -0.486087 0.850318 0.201691
vn -0.143716 0.831667 -0.536354
vn -0.680861 0.612688 0.401300
vn 0.223016 0.874944 0.429810
vn -0.254200 0.868066 0.426432
vn -0.464922 0.588819 0.661165
vn 0.387568 0.540242 0.746947
vn 0.126145 0.873186 -0.470781
vn 0.172160 0.969908 -0.172161
vn -0.126145 0.873186 0.470780
vn 0.344635 0.873186 -0.344636
vn -0.344635 0.873186 0.344635
vn 0.470780 0.873186 -0.126146
vn -0.470780 0.873186 0.126145
vn -0.470781 0.873186 -0.126145
vn 0.470780 0.873186 0.126145
vn -0.344636 0.873186 -0.344635
vn 0.344635 0.873186 0.344635
vn -0.126146 0.873186 -0.470780
vn 0.126145 0.873186 0.470780
vn 0.000000 1.000000 0.000000
vn -0.172160 0.969908 0.172161
vn 0.235176 0.969908 -0.063015
vn -0.235176 0.969908 0.063015
vn -0.235176 0.969908 -0.063015
vn 0.235176 0.969908 0.063015
vn -0.172161 0.969908 -0.172160
vn 0.172161 0.969908 0.172160
vn -0.063015 0.969908 -0.235176
vn 0.063015 0.969908 0.235176
vn 0.063015 0.969908 -0.235176
vn -0.063015 0.969908 0.235176
vn 0.453090 0.540241 -0.709118
vn 0.805047 0.588819 0.072052
vn 0.496401 0.868066 0.006927
vn 0.260719 0.874944 -0.408043
vn -0.135331 0.980095 0.145257
vn -0.199360 0.978849 0.045931
vn 0.144336 0.962853 -0.228212
vn 0.013239 -0.999906 -0.003548
vn -0.111870 0.835248 -0.538373
vn -0.045643 0.597262 -0.800746
vn 0.687833 0.612569 0.389415
vn -0.406773 0.817968 0.406773
vn 0.417330 0.849537 0.322680
vn 0.009128 -0.999917 -0.009128
vn 0.412726 0.853134 0.319092
vn -0.098658 0.872523 -0.478509
vn -0.559439 0.815204 0.149902
vn -0.131493 0.959579 -0.248832
vn -0.269805 0.962853 -0.010894
vn 0.139457 0.978849 0.149686
vn 0.193461 0.980095 0.044572
vn -0.483735 0.874944 -0.021768
vn -0.242201 0.868066 -0.433359
vn -0.340124 0.588819 -0.733218
vn -0.840659 0.540242 -0.037830
vn -0.672516 0.598930 0.434747
vn -0.411434 0.837537 0.359519
vn -0.004624 -0.999979 -0.004624
vn 0.396167 0.828314 0.396167
vn -0.354956 0.882695 0.307986
vn 0.066692 0.857748 -0.509726
vn -0.005966 -0.999981 -0.001598
vn 0.068451 0.850293 -0.521840
vn 0.542626 0.827295 0.145396
vn -0.007246 0.612727 -0.790262
vn 0.352568 0.932232 -0.081476
vn 0.196210 0.652141 -0.732266
vn 0.731114 0.522915 0.438216
vn 0.556729 0.781178 0.282515
vn -0.536055 0.652141 0.536057
vn 0.732267 0.652141 0.196210
vn -0.105724 0.932232 0.346071
vn 0.320544 0.891350 0.320543
vn -0.320543 0.891350 0.320543
vn -0.002816 -0.999988 0.004005
vn 0.091552 0.944651 0.315043
vn 0.142870 0.872879 -0.466551
vn 0.592374 0.790696 0.154575
vn -0.628345 0.749154 0.209645
vn 0.059848 0.978796 -0.195902
vn -0.056939 0.978962 -0.195935
vn 0.002355 -0.999989 0.004005
vn -0.514235 0.802892 0.301541
vn -0.142871 0.872879 -0.466551
vn -0.701448 0.424796 0.572293
vn 0.215405 0.867526 0.448330
vn -0.254157 0.868024 0.426543
vn -0.442419 0.503425 0.742179
vn 0.402144 0.608921 0.683736
vn 0.126144 0.873186 -0.470780
vn -0.470780 0.873186 -0.126145
vn 0.235175 0.969908 -0.063015
vn -0.172161 0.969908 -0.172161
vn 0.391060 0.608922 -0.690135
vn 0.863955 0.503425 0.012055
vn 0.496475 0.868024 0.006834
vn 0.280562 0.867526 -0.410711
vn -0.141215 0.978962 0.147278
vn -0.199580 0.978796 0.046122
vn 0.227059 0.944651 -0.236808
vn 0.010250 -0.999947 0.000917
vn -0.038233 0.779049 -0.625796
vn 0.010049 0.522262 -0.852726
vn 0.846469 0.425000 0.320727
vn -0.345556 0.861988 0.370902
vn 0.518252 0.802146 0.296608
vn 0.004799 -0.999953 -0.008469
vn 0.495730 0.749155 0.439339
vn -0.162321 0.790697 -0.590297
vn -0.497525 0.859843 0.114626
vn -0.246844 0.932232 -0.264596
vn -0.318611 0.944651 -0.078236
vn 0.139732 0.978795 0.149781
vn 0.198154 0.978962 0.048657
vn -0.495968 0.867526 -0.037619
vn -0.242318 0.868024 -0.433378
vn -0.421535 0.503425 -0.754236
vn -0.793205 0.608921 0.006398
vn -0.745747 0.523200 0.412460
vn -0.523075 0.781703 0.339607
vn -0.002063 -0.999988 -0.004447
vn 0.335279 0.870679 0.359870
vn -0.430053 0.790697 0.435722
vn 0.132616 0.749154 -0.648985
vn -0.004658 -0.999989 0.000038
vn -0.004127 0.802935 -0.596052
vn 0.480643 0.869897 0.110735
vn -0.145327 0.424948 -0.893476
s off
f 74/1/1 73/2/1 78/3/1
f 12/4/2 13/5/2 15/6/2
f 14/7/3 15/6/3 2/8/3
f 16/9/4 17/10/4 19/11/4
f 18/12/5 19/11/5 47/13/5
f 19/11/6 31/14/6 42/15/6
f 24/16/7 25/17/7 10/18/7
f 22/19/8 23/20/8 25/17/8
f 11/21/9 12/22/9 14/23/9
f 4/24/10 5/25/10 17/10/10
f 15/6/11 13/5/11 28/26/11
f 10/18/12 25/17/12 34/27/12
f 40/28/13 41/29/13 36/30/13
f 19/11/14 17/10/14 30/31/14
f 2/8/15 15/6/15 29/32/15
f 25/17/16 23/20/16 33/33/16
f 22/34/17 20/35/17 44/36/17
f 17/10/18 5/25/18 8/37/18
f 41/29/19 42/15/19 36/30/19
f 32/38/20 33/33/20 38/39/20
f 42/15/21 31/14/21 21/40/21
f 33/33/22 40/28/22 38/39/22
f 39/41/23 38/39/23 37/42/23
f 21/40/24 39/41/24 35/43/24
f 20/35/25 18/44/25 48/45/25
f 33/33/26 23/20/26 40/28/26
f 31/14/27 32/38/27 21/40/27
f 23/20/28 22/19/28 43/46/28
f 45/47/29 47/13/29 41/29/29
f 43/46/30 45/47/30 41/29/30
f 46/48/31 45/47/31 44/49/31
f 48/50/32 47/13/32 45/47/32
f 32/38/33 59/51/33 33/33/33
f 59/51/34 72/52/34 60/53/34
f 29/32/35 53/54/35 6/55/35
f 33/33/36 60/53/36 34/27/36
f 6/55/37 54/56/37 7/57/37
f 34/27/38 49/58/38 26/59/38
f 7/57/39 55/60/39 8/37/39
f 8/37/40 56/61/40 30/31/40
f 26/59/41 50/62/41 27/63/41
f 30/31/42 57/64/42 31/14/42
f 27/63/43 51/65/43 28/26/43
f 31/14/44 58/66/44 32/38/44
f 28/26/45 52/67/45 29/32/45
f 70/68/46 69/69/46 68/70/46
f 53/54/47 66/71/47 54/56/47
f 60/53/48 61/72/48 49/58/48
f 54/56/49 67/73/49 55/60/49
f 55/60/50 68/70/50 56/61/50
f 49/58/51 62/74/51 50/62/51
f 56/61/52 69/69/52 57/64/52
f 50/62/53 63/75/53 51/65/53
f 57/64/54 70/68/54 58/66/54
f 51/65/55 64/76/55 52/67/55
f 58/66/56 71/77/56 59/51/56
f 52/67/57 65/78/57 53/54/57
f 87/79/58 86/80/58 84/81/58
f 85/82/59 84/81/59 83/83/59
f 82/84/60 84/81/60 73/2/60
f 84/81/61 86/80/61 73/2/61
f 80/85/62 75/86/62 79/87/62
f 75/86/63 76/88/63 77/89/63
f 73/2/64 81/90/64 78/3/64
f 4/91/65 3/92/65 83/93/65
f 2/8/66 6/55/66 81/90/66
f 1/94/67 2/8/67 86/80/67
f 5/25/68 4/24/68 82/84/68
f 6/55/69 7/57/69 80/85/69
f 8/37/70 5/25/70 74/1/70
f 3/92/71 1/95/71 87/96/71
f 8/37/72 74/1/72 76/88/72
f 81/90/73 6/55/73 80/85/73
f 7/57/74 8/37/74 76/88/74
f 94/97/75 95/98/75 90/99/75
f 95/98/76 96/100/76 90/99/76
f 93/101/77 92/102/77 91/103/77
f 88/104/78 93/101/78 89/105/78
f 99/106/79 101/107/79 95/98/79
f 97/108/80 99/106/80 95/98/80
f 100/109/81 99/106/81 98/110/81
f 102/111/82 101/107/82 99/106/82
f 9/112/83 10/18/83 101/107/83
f 10/18/84 26/59/84 96/100/84
f 12/22/85 11/21/85 98/113/85
f 27/63/86 28/26/86 92/102/86
f 96/100/87 26/59/87 88/104/87
f 28/26/88 94/97/88 92/102/88
f 11/21/89 9/114/89 102/115/89
f 28/26/90 13/5/90 94/97/90
f 26/59/91 27/63/91 88/104/91
f 13/5/92 12/4/92 97/108/92
f 77/89/93 74/1/93 78/3/93
f 14/7/2 12/4/2 15/6/2
f 1/94/94 14/7/94 2/8/94
f 18/12/4 16/9/4 19/11/4
f 48/50/95 18/12/95 47/13/95
f 47/13/96 19/11/96 42/15/96
f 9/112/7 24/16/7 10/18/7
f 24/16/97 22/19/97 25/17/97
f 20/35/9 16/116/9 18/44/9
f 20/35/9 4/91/9 16/116/9
f 20/35/9 3/92/9 4/91/9
f 20/35/9 1/95/9 3/92/9
f 9/114/9 11/21/9 24/117/9
f 11/21/9 14/23/9 24/117/9
f 14/23/9 1/95/9 24/117/9
f 1/95/9 20/35/9 24/117/9
f 20/35/9 22/34/9 24/117/9
f 16/9/98 4/24/98 17/10/98
f 29/32/11 15/6/11 28/26/11
f 26/59/12 10/18/12 34/27/12
f 37/42/99 40/28/99 36/30/99
f 31/14/100 19/11/100 30/31/100
f 6/55/15 2/8/15 29/32/15
f 34/27/101 25/17/101 33/33/101
f 20/35/102 46/118/102 44/36/102
f 30/31/18 17/10/18 8/37/18
f 42/15/103 35/43/103 36/30/103
f 39/41/104 32/38/104 38/39/104
f 35/43/105 42/15/105 21/40/105
f 40/28/106 37/42/106 38/39/106
f 36/30/107 39/41/107 37/42/107
f 39/41/108 36/30/108 35/43/108
f 46/118/109 20/35/109 48/45/109
f 23/20/110 43/46/110 40/28/110
f 32/38/111 39/41/111 21/40/111
f 22/19/112 44/49/112 43/46/112
f 47/13/113 42/15/113 41/29/113
f 40/28/114 43/46/114 41/29/114
f 45/47/115 43/46/115 44/49/115
f 46/48/116 48/50/116 45/47/116
f 58/66/117 59/51/117 32/38/117
f 71/77/34 72/52/34 59/51/34
f 52/67/35 53/54/35 29/32/35
f 59/51/36 60/53/36 33/33/36
f 53/54/37 54/56/37 6/55/37
f 60/53/38 49/58/38 34/27/38
f 54/56/39 55/60/39 7/57/39
f 55/60/118 56/61/118 8/37/118
f 49/58/41 50/62/41 26/59/41
f 56/61/42 57/64/42 30/31/42
f 50/62/43 51/65/43 27/63/43
f 57/64/44 58/66/44 31/14/44
f 51/65/45 52/67/45 28/26/45
f 71/77/46 70/68/46 68/70/46
f 71/77/46 68/70/46 67/73/46
f 62/74/46 61/72/46 72/52/46
f 71/77/46 67/73/46 66/71/46
f 65/78/46 71/77/46 66/71/46
f 65/78/46 72/52/46 71/77/46
f 65/78/46 62/74/46 72/52/46
f 64/76/46 62/74/46 65/78/46
f 63/75/46 62/74/46 64/76/46
f 65/78/47 66/71/47 53/54/47
f 72/52/119 61/72/119 60/53/119
f 66/71/49 67/73/49 54/56/49
f 67/73/50 68/70/50 55/60/50
f 61/72/51 62/74/51 49/58/51
f 68/70/120 69/69/120 56/61/120
f 62/74/53 63/75/53 50/62/53
f 69/69/54 70/68/54 57/64/54
f 63/75/55 64/76/55 51/65/55
f 70/68/56 71/77/56 58/66/56
f 64/76/57 65/78/57 52/67/57
f 85/82/121 87/79/121 84/81/121
f 84/81/122 82/84/122 83/83/122
f 74/1/123 82/84/123 73/2/123
f 86/80/124 81/90/124 73/2/124
f 75/86/125 78/3/125 79/87/125
f 78/3/126 75/86/126 77/89/126
f 81/90/127 79/87/127 78/3/127
f 3/92/128 85/119/128 83/93/128
f 86/80/129 2/8/129 81/90/129
f 87/79/130 1/94/130 86/80/130
f 4/24/131 83/83/131 82/84/131
f 7/57/132 75/86/132 80/85/132
f 5/25/133 82/84/133 74/1/133
f 85/119/134 3/92/134 87/96/134
f 74/1/135 77/89/135 76/88/135
f 79/87/136 81/90/136 80/85/136
f 75/86/137 7/57/137 76/88/137
f 91/103/138 94/97/138 90/99/138
f 96/100/139 89/105/139 90/99/139
f 90/99/140 93/101/140 91/103/140
f 93/101/141 90/99/141 89/105/141
f 101/107/142 96/100/142 95/98/142
f 94/97/143 97/108/143 95/98/143
f 99/106/144 97/108/144 98/110/144
f 100/109/145 102/111/145 99/106/145
f 102/111/146 9/112/146 101/107/146
f 101/107/147 10/18/147 96/100/147
f 11/21/148 100/120/148 98/113/148
f 93/101/149 27/63/149 92/102/149
f 89/105/150 96/100/150 88/104/150
f 94/97/151 91/103/151 92/102/151
f 100/120/152 11/21/152 102/115/152
f 13/5/153 97/108/153 94/97/153
f 27/63/154 93/101/154 88/104/154
f 12/4/155 98/110/155 97/108/155
