# Blender v2.68 (sub 0) OBJ File: 'Node.blend'
# www.blender.org
v 1.000000 0.687468 -0.825143
v 0.947366 0.664031 -0.784548
v 1.000000 0.824728 -0.687883
v 1.000000 0.874969 -0.500383
v 0.947366 0.828094 -0.500383
v 0.907068 0.623015 -0.713507
v 0.907068 0.713092 -0.623430
v 0.907069 0.746062 -0.500383
v 1.000000 0.124968 -0.500383
v 0.947366 0.171844 -0.500383
v 1.000000 0.175209 -0.687883
v 1.000000 0.312468 -0.825143
v 0.947366 0.335906 -0.784548
v 1.000000 0.499968 -0.875383
v 0.947366 0.499968 -0.828508
v 1.000000 0.824728 -0.312883
v 0.947366 0.784133 -0.336321
v 1.000000 0.687469 -0.175624
v 0.947366 0.664031 -0.216219
v 1.000000 0.499969 -0.125383
v 0.896010 0.592507 -0.261938
v 1.000000 0.312469 -0.175623
v 0.947366 0.335906 -0.216218
v 1.000000 0.175209 -0.312883
v 0.947366 0.215804 -0.336320
v 0.907068 0.253875 -0.500383
v 0.907068 0.286845 -0.623430
v 0.907068 0.376922 -0.713507
v 0.907068 0.499968 -0.746477
v 0.907068 0.713092 -0.377337
v 0.907068 0.623016 -0.287260
v 0.907068 0.499969 -0.254289
v 0.907068 0.376922 -0.287260
v 0.907068 0.286845 -0.377336
v 0.889197 0.572647 -0.220679
v 0.889197 0.499969 -0.199559
v 0.889197 0.429147 -0.221195
v 0.896010 0.407430 -0.261938
v 0.896010 0.499969 -0.233600
v 0.907827 0.423059 -0.172871
v 0.906569 0.499969 -0.129603
v 0.908350 0.584095 -0.166576
v 0.946866 0.400975 -0.106583
v 0.999501 0.395628 -0.074068
v 0.946866 0.499969 -0.047572
v 0.999501 0.499969 -0.000697
v 0.946866 0.605549 -0.102354
v 0.999501 0.627071 -0.075452
v 0.940239 0.315398 -0.500383
v 0.940239 0.340126 -0.592668
v 0.940239 0.407683 -0.660226
v 0.940239 0.499968 -0.684953
v 0.940239 0.592254 -0.660226
v 0.940239 0.659811 -0.592668
v 0.940239 0.684539 -0.500383
v 0.940239 0.659811 -0.408098
v 0.940239 0.592254 -0.340541
v 0.940239 0.499969 -0.315813
v 0.940239 0.407684 -0.340540
v 0.940239 0.340126 -0.408098
v 0.955623 0.378844 -0.500383
v 0.955623 0.395072 -0.560945
v 0.955623 0.439406 -0.605280
v 0.955623 0.499968 -0.621507
v 0.955623 0.560531 -0.605280
v 0.955623 0.604865 -0.560945
v 0.955623 0.621093 -0.500383
v 0.955623 0.604865 -0.439821
v 0.955623 0.560531 -0.395487
v 0.955623 0.499969 -0.379259
v 0.955623 0.439407 -0.395486
v 0.955623 0.395072 -0.439821
v 0.906022 0.820783 -0.685979
v 0.907280 0.821767 -0.597738
v 0.895463 0.730718 -0.633980
v 0.895463 0.752447 -0.539670
v 0.888650 0.776873 -0.578849
v 0.888650 0.760199 -0.651000
v 0.888650 0.705569 -0.703381
v 0.895463 0.659908 -0.699951
v 0.907803 0.746700 -0.740347
v 0.946319 0.890216 -0.611758
v 0.998954 0.921048 -0.623384
v 0.946319 0.891824 -0.726994
v 0.998954 0.932419 -0.750432
v 0.946319 0.791590 -0.791038
v 0.998954 0.804128 -0.823127
v 0.896010 0.247482 -0.539445
v 0.889197 0.221681 -0.577274
v 0.889197 0.239729 -0.650775
v 0.889197 0.293877 -0.701290
v 0.896010 0.340020 -0.699726
v 0.896010 0.269210 -0.633754
v 0.907826 0.255072 -0.730725
v 0.906569 0.179145 -0.685753
v 0.908350 0.169102 -0.594412
v 0.946866 0.208706 -0.782994
v 0.999500 0.183221 -0.803883
v 0.946866 0.108104 -0.726769
v 0.999500 0.067509 -0.750206
v 0.946866 0.102757 -0.607942
v 0.999500 0.068698 -0.602755
vt 0.590890 0.240241
vt 0.573736 0.192003
vt 0.613731 0.198901
vt 0.822579 0.014336
vt 0.817957 0.041135
vt 0.719823 0.050092
vt 0.710426 0.024572
vt 0.639316 0.106915
vt 0.646383 0.395918
vt 0.663785 0.375020
vt 0.753249 0.416330
vt 0.748627 0.443130
vt 0.807915 0.466598
vt 0.761338 0.369431
vt 0.806721 0.427332
vt 1.000000 0.265709
vt 0.973200 0.261087
vt 0.964244 0.162953
vt 0.952788 0.367953
vt 0.931890 0.350551
vt 0.428871 0.192164
vt 0.418518 0.304306
vt 0.353482 0.396247
vt 0.581442 0.303909
vt 0.606962 0.294512
vt 0.809868 0.088035
vt 0.926301 0.252998
vt 0.893132 0.391622
vt 0.859934 0.430597
vt 0.845909 0.392510
vt 0.694240 0.338448
vt 0.736268 0.094752
vt 0.895318 0.320096
vt 0.177683 0.014481
vt 0.075389 0.061586
vt 0.102921 0.000000
vt 0.651622 0.278067
vt 0.834938 0.362714
vt 0.883785 0.339998
vt 0.783023 0.377101
vt 0.839085 0.373977
vt 0.880130 0.366534
vt 0.802107 0.395582
vt 0.010353 0.153527
vt 0.000161 0.086434
vt 0.918444 0.423284
vt 0.876378 0.475257
vt 0.885776 0.500777
vt 0.927873 0.439914
vt 0.801591 0.485558
vt 0.867890 0.297255
vt 0.854853 0.240676
vt 0.891127 0.246932
vt 0.703316 0.160210
vt 0.675888 0.137369
vt 0.680079 0.210534
vt 0.644905 0.204467
vt 0.886089 0.191732
vt 0.919584 0.179398
vt 0.685117 0.265734
vt 0.717080 0.311019
vt 0.854126 0.146446
vt 0.876966 0.119017
vt 0.767404 0.334256
vt 0.803802 0.123209
vt 0.822604 0.329218
vt 0.748602 0.128247
vt 0.809885 0.294676
vt 0.773660 0.297983
vt 0.740635 0.282733
vt 0.716353 0.216790
vt 0.851547 0.204451
vt 0.719659 0.253015
vt 0.830571 0.174732
vt 0.797546 0.159483
vt 0.761321 0.162789
vt 0.839604 0.273701
vt 0.731602 0.183765
vt 0.555309 0.113997
vt 0.568567 0.128953
vt 0.526836 0.183915
vt 0.500037 0.179293
vt 0.531697 0.246182
vt 0.550813 0.246330
vt 0.658520 0.152145
vt 0.633194 0.202258
vt 0.632973 0.159432
vt 0.640271 0.257958
vt 0.619118 0.241525
vt 0.603169 0.147552
vt 0.047105 0.367962
vt 0.139046 0.432999
vt 0.072151 0.439933
vt 0.618418 0.089512
vt 0.251188 0.443352
vt 0.198385 0.485709
vt 0.872755 0.054233
vt 0.923107 0.063496
vt 0.897136 0.094684
vt 0.946887 0.111212
vt 0.884498 0.109861
vt 0.832721 0.088139
vt 0.857529 0.078038
vt 0.915234 0.156850
vt 0.921697 0.131083
vt 0.953562 0.026924
vt 0.980294 0.090545
vt 0.887520 0.016481
vt 0.970964 0.006026
vt 0.897207 0.000000
vt 0.999877 0.086541
vt 0.989764 0.153556
vt 0.468307 0.246896
vt 0.381766 0.089870
vt 0.444833 0.114686
vt 0.000000 0.265668
vt 0.289825 0.024834
vt 0.029157 0.005949
vt 0.114185 0.500840
vt 0.500037 0.180040
vn -0.959579 0.281242 0.010539
vn -0.652141 -0.196210 -0.732266
vn -0.652141 0.196210 -0.732266
vn -0.652141 0.536057 0.536055
vn -0.598490 0.713695 0.363935
vn -0.837188 0.517857 0.175901
vn -0.652141 -0.732266 0.196211
vn -0.652141 -0.536055 0.536057
vn 1.000000 -0.000001 0.000000
vn -0.652140 0.732267 0.196210
vn -0.891350 -0.117327 -0.437870
vn -0.891350 -0.437869 0.117327
vn -0.959580 -0.149747 0.238291
vn -0.891349 0.320544 0.320543
vn -0.891350 0.117327 -0.437870
vn -0.891350 -0.320542 0.320543
vn 0.999979 -0.001688 0.006298
vn -0.891350 0.437870 0.117327
vn -0.962853 0.125469 0.239104
vn -0.831668 0.143715 -0.536352
vn -0.881352 0.446840 0.153467
vn -0.857891 -0.474533 0.197082
vn -0.978849 0.059903 -0.195618
vn -0.980095 -0.058130 -0.189829
vn 0.999981 0.001592 0.005945
vn -0.850318 -0.486087 0.201691
vn -0.831667 -0.143715 -0.536354
vn -0.612688 -0.680861 0.401300
vn -0.874944 0.223016 0.429811
vn -0.868066 -0.254199 0.426433
vn -0.588820 -0.464922 0.661165
vn -0.540241 0.387569 0.746947
vn -0.873185 0.126146 -0.470781
vn -0.969908 0.172161 -0.172161
vn -0.873186 -0.126144 0.470780
vn -0.873186 0.344635 -0.344636
vn -0.873186 -0.344634 0.344635
vn -0.873185 0.470781 -0.126145
vn -0.873186 -0.470780 0.126146
vn -0.873186 -0.470780 -0.126145
vn -0.873186 0.470781 0.126145
vn -0.873186 -0.344635 -0.344634
vn -0.873185 0.344636 0.344635
vn -0.873186 -0.126145 -0.470780
vn -0.873186 0.126146 0.470780
vn -1.000000 -0.000000 -0.000002
vn -0.969908 -0.172160 0.172161
vn -0.969908 0.235176 -0.063015
vn -0.969908 -0.235176 0.063015
vn -0.969908 -0.235175 -0.063015
vn -0.969908 0.235176 0.063015
vn -0.969908 -0.172160 -0.172160
vn -0.969908 0.172162 0.172161
vn -0.969908 -0.063015 -0.235176
vn -0.969908 0.063016 0.235176
vn -0.969908 0.063016 -0.235176
vn -0.969908 -0.063014 0.235175
vn -0.540241 0.453090 -0.709118
vn -0.588818 0.805048 0.072051
vn -0.868066 0.496401 0.006927
vn -0.874944 0.260719 -0.408043
vn -0.980095 -0.135329 0.145257
vn -0.978849 -0.199361 0.045932
vn -0.962853 0.144337 -0.228212
vn 0.999906 0.013239 -0.003547
vn -0.835248 -0.111870 -0.538373
vn -0.597262 -0.045643 -0.800746
vn -0.612569 0.687834 0.389415
vn -0.817967 -0.406774 0.406774
vn -0.849537 0.417330 0.322680
vn 0.999917 0.009127 -0.009128
vn -0.853135 0.412725 0.319091
vn -0.872522 -0.098658 -0.478510
vn -0.815205 -0.559438 0.149901
vn -0.959579 -0.131493 -0.248832
vn -0.962853 -0.269805 -0.010894
vn -0.978849 0.139457 0.149686
vn -0.980095 0.193463 0.044572
vn -0.874944 -0.483734 -0.021768
vn -0.868066 -0.242200 -0.433359
vn -0.588819 -0.340123 -0.733218
vn -0.540242 -0.840659 -0.037830
vn -0.598930 -0.672516 0.434747
vn -0.837537 -0.411434 0.359520
vn 0.999979 -0.004625 -0.004624
vn -0.828313 0.396168 0.396167
vn -0.882696 -0.354955 0.307985
vn -0.857748 0.066693 -0.509726
vn 0.999981 -0.005966 -0.001599
vn -0.850293 0.068451 -0.521840
vn -0.827295 0.542626 0.145395
vn -0.612727 -0.007245 -0.790262
vn -0.932232 0.352569 -0.081476
vn -0.652141 0.196210 -0.732267
vn -0.652140 0.536057 0.536055
vn -0.522914 0.731114 0.438216
vn -0.781177 0.556729 0.282515
vn -0.652142 -0.732265 0.196211
vn 1.000000 0.000000 0.000000
vn -0.652141 0.732266 0.196210
vn -0.891350 -0.117326 -0.437870
vn -0.891350 -0.437870 0.117328
vn -0.932232 -0.105723 0.346072
vn -0.891350 0.320544 0.320543
vn -0.891350 0.117327 -0.437869
vn 0.999988 -0.002816 0.004005
vn -0.891349 0.437871 0.117326
vn -0.944651 0.091552 0.315043
vn -0.872878 0.142871 -0.466553
vn -0.790695 0.592375 0.154575
vn -0.749153 -0.628346 0.209645
vn -0.978796 0.059849 -0.195900
vn -0.978963 -0.056938 -0.195934
vn 0.999989 0.002355 0.004005
vn -0.802892 -0.514234 0.301541
vn -0.872879 -0.142871 -0.466552
vn -0.424796 -0.701448 0.572293
vn -0.867526 0.215406 0.448330
vn -0.868024 -0.254156 0.426543
vn -0.503425 -0.442418 0.742179
vn -0.608922 0.402144 0.683736
vn -0.873186 0.126145 -0.470780
vn -0.969908 0.172162 -0.172161
vn -0.873185 0.344636 -0.344636
vn -0.873186 0.470780 -0.126146
vn -0.873186 -0.470779 0.126146
vn -0.873185 0.470781 0.126145
vn -0.873186 -0.344635 -0.344635
vn -0.873186 0.344636 0.344634
vn -1.000000 0.000000 -0.000001
vn -1.000000 0.000004 -0.000000
vn -1.000000 0.000001 0.000001
vn -1.000000 0.000001 0.000000
vn -1.000000 0.000000 -0.000000
vn -0.969908 -0.172159 0.172160
vn -0.969908 0.235177 -0.063015
vn -0.969908 -0.235174 0.063016
vn -0.969908 -0.235176 -0.063016
vn -0.969908 0.235176 0.063014
vn -0.969908 -0.172160 -0.172161
vn -0.969908 0.172162 0.172160
vn -0.969908 -0.063015 -0.235175
vn -0.969908 0.063015 0.235176
vn -0.969908 0.063015 -0.235176
vn -0.969908 -0.063015 0.235176
vn -0.608921 0.391061 -0.690135
vn -0.503424 0.863955 0.012056
vn -0.868023 0.496476 0.006834
vn -0.867525 0.280563 -0.410712
vn -0.978962 -0.141215 0.147278
vn -0.978796 -0.199580 0.046122
vn -0.944651 0.227059 -0.236808
vn 0.999947 0.010249 0.000918
vn -0.779049 -0.038233 -0.625796
vn -0.522262 0.010049 -0.852726
vn -0.424999 0.846469 0.320727
vn -0.861988 -0.345555 0.370902
vn -0.802146 0.518253 0.296608
vn 0.999953 0.004798 -0.008469
vn -0.749154 0.495731 0.439340
vn -0.790697 -0.162320 -0.590296
vn -0.859844 -0.497524 0.114626
vn -0.932232 -0.246844 -0.264596
vn -0.944652 -0.318610 -0.078236
vn -0.978795 0.139734 0.149781
vn -0.978962 0.198156 0.048658
vn -0.867526 -0.495967 -0.037620
vn -0.868024 -0.242318 -0.433378
vn -0.503425 -0.421535 -0.754236
vn -0.608922 -0.793205 0.006398
vn -0.523200 -0.745747 0.412460
vn -0.781703 -0.523074 0.339608
vn 0.999988 -0.002063 -0.004447
vn -0.870678 0.335279 0.359871
vn -0.790696 -0.430053 0.435723
vn -0.749154 0.132616 -0.648984
vn 0.999989 -0.004658 0.000038
vn -0.802935 -0.004127 -0.596052
vn -0.869896 0.480644 0.110735
vn -0.424948 -0.145327 -0.893476
s off
f 74/1/1 73/2/1 78/3/1
f 12/4/2 13/5/2 15/6/2
f 14/7/3 15/6/3 2/8/3
f 16/9/4 17/10/4 19/11/4
f 18/12/5 19/11/5 47/13/5
f 19/11/6 31/14/6 42/15/6
f 24/16/7 25/17/7 10/18/7
f 22/19/8 23/20/8 25/17/8
f 11/21/9 12/22/9 14/23/9
f 4/24/10 5/25/10 17/10/10
f 15/6/11 13/5/11 28/26/11
f 10/18/12 25/17/12 34/27/12
f 40/28/13 41/29/13 36/30/13
f 19/11/14 17/10/14 30/31/14
f 2/8/15 15/6/15 29/32/15
f 25/17/16 23/20/16 33/33/16
f 22/34/17 20/35/17 44/36/17
f 17/10/18 5/25/18 8/37/18
f 41/29/19 42/15/19 36/30/19
f 32/38/20 33/33/20 38/39/20
f 42/15/21 31/14/21 21/40/21
f 33/33/22 40/28/22 38/39/22
f 39/41/23 38/39/23 37/42/23
f 21/40/24 39/41/24 35/43/24
f 20/35/25 18/44/25 48/45/25
f 33/33/26 23/20/26 40/28/26
f 31/14/27 32/38/27 21/40/27
f 23/20/28 22/19/28 43/46/28
f 45/47/29 47/13/29 41/29/29
f 43/46/30 45/47/30 41/29/30
f 46/48/31 45/47/31 44/49/31
f 48/50/32 47/13/32 45/47/32
f 32/38/33 59/51/33 33/33/33
f 59/51/34 72/52/34 60/53/34
f 29/32/35 53/54/35 6/55/35
f 33/33/36 60/53/36 34/27/36
f 6/55/37 54/56/37 7/57/37
f 34/27/38 49/58/38 26/59/38
f 7/57/39 55/60/39 8/37/39
f 8/37/40 56/61/40 30/31/40
f 26/59/41 50/62/41 27/63/41
f 30/31/42 57/64/42 31/14/42
f 27/63/43 51/65/43 28/26/43
f 31/14/44 58/66/44 32/38/44
f 28/26/45 52/67/45 29/32/45
f 70/68/46 69/69/46 68/70/46
f 53/54/47 66/71/47 54/56/47
f 60/53/48 61/72/48 49/58/48
f 54/56/49 67/73/49 55/60/49
f 55/60/50 68/70/50 56/61/50
f 49/58/51 62/74/51 50/62/51
f 56/61/52 69/69/52 57/64/52
f 50/62/53 63/75/53 51/65/53
f 57/64/54 70/68/54 58/66/54
f 51/65/55 64/76/55 52/67/55
f 58/66/56 71/77/56 59/51/56
f 52/67/57 65/78/57 53/54/57
f 87/79/58 86/80/58 84/81/58
f 85/82/59 84/81/59 83/83/59
f 82/84/60 84/81/60 73/2/60
f 84/81/61 86/80/61 73/2/61
f 80/85/62 75/86/62 79/87/62
f 75/86/63 76/88/63 77/89/63
f 73/2/64 81/90/64 78/3/64
f 4/91/65 3/92/65 83/93/65
f 2/8/66 6/55/66 81/90/66
f 1/94/67 2/8/67 86/80/67
f 5/25/68 4/24/68 82/84/68
f 6/55/69 7/57/69 80/85/69
f 8/37/70 5/25/70 74/1/70
f 3/92/71 1/95/71 87/96/71
f 8/37/72 74/1/72 76/88/72
f 81/90/73 6/55/73 80/85/73
f 7/57/74 8/37/74 76/88/74
f 94/97/75 95/98/75 90/99/75
f 95/98/76 96/100/76 90/99/76
f 93/101/77 92/102/77 91/103/77
f 88/104/78 93/101/78 89/105/78
f 99/106/79 101/107/79 95/98/79
f 97/108/80 99/106/80 95/98/80
f 100/109/81 99/106/81 98/110/81
f 102/111/82 101/107/82 99/106/82
f 9/112/83 10/18/83 101/107/83
f 10/18/84 26/59/84 96/100/84
f 12/22/85 11/21/85 98/113/85
f 27/63/86 28/26/86 92/102/86
f 96/100/87 26/59/87 88/104/87
f 28/26/88 94/97/88 92/102/88
f 11/21/89 9/114/89 102/115/89
f 28/26/90 13/5/90 94/97/90
f 26/59/91 27/63/91 88/104/91
f 13/5/92 12/4/92 97/108/92
f 77/89/93 74/1/93 78/3/93
f 14/7/2 12/4/2 15/6/2
f 1/94/94 14/7/94 2/8/94
f 18/12/95 16/9/95 19/11/95
f 48/50/96 18/12/96 47/13/96
f 47/13/97 19/11/97 42/15/97
f 9/112/98 24/16/98 10/18/98
f 24/16/8 22/19/8 25/17/8
f 20/35/9 16/116/9 18/44/9
f 20/35/9 4/91/9 16/116/9
f 20/35/9 3/92/9 4/91/9
f 20/35/9 1/95/9 3/92/9
f 9/114/99 11/21/99 24/117/99
f 11/21/9 14/23/9 24/117/9
f 14/23/9 1/95/9 24/117/9
f 1/95/9 20/35/9 24/117/9
f 20/35/9 22/34/9 24/117/9
f 16/9/100 4/24/100 17/10/100
f 29/32/101 15/6/101 28/26/101
f 26/59/102 10/18/102 34/27/102
f 37/42/103 40/28/103 36/30/103
f 31/14/104 19/11/104 30/31/104
f 6/55/105 2/8/105 29/32/105
f 34/27/16 25/17/16 33/33/16
f 20/35/106 46/118/106 44/36/106
f 30/31/107 17/10/107 8/37/107
f 42/15/108 35/43/108 36/30/108
f 39/41/109 32/38/109 38/39/109
f 35/43/110 42/15/110 21/40/110
f 40/28/111 37/42/111 38/39/111
f 36/30/112 39/41/112 37/42/112
f 39/41/113 36/30/113 35/43/113
f 46/118/114 20/35/114 48/45/114
f 23/20/115 43/46/115 40/28/115
f 32/38/116 39/41/116 21/40/116
f 22/19/117 44/49/117 43/46/117
f 47/13/118 42/15/118 41/29/118
f 40/28/119 43/46/119 41/29/119
f 45/47/120 43/46/120 44/49/120
f 46/48/121 48/50/121 45/47/121
f 58/66/122 59/51/122 32/38/122
f 71/77/123 72/52/123 59/51/123
f 52/67/35 53/54/35 29/32/35
f 59/51/124 60/53/124 33/33/124
f 53/54/37 54/56/37 6/55/37
f 60/53/125 49/58/125 34/27/125
f 54/56/126 55/60/126 7/57/126
f 55/60/40 56/61/40 8/37/40
f 49/58/127 50/62/127 26/59/127
f 56/61/128 57/64/128 30/31/128
f 50/62/129 51/65/129 27/63/129
f 57/64/44 58/66/44 31/14/44
f 51/65/45 52/67/45 28/26/45
f 71/77/130 70/68/130 68/70/130
f 71/77/130 68/70/130 67/73/130
f 62/74/131 61/72/131 72/52/131
f 71/77/132 67/73/132 66/71/132
f 65/78/133 71/77/133 66/71/133
f 65/78/133 72/52/133 71/77/133
f 65/78/134 62/74/134 72/52/134
f 64/76/130 62/74/130 65/78/130
f 63/75/46 62/74/46 64/76/46
f 65/78/135 66/71/135 53/54/135
f 72/52/136 61/72/136 60/53/136
f 66/71/137 67/73/137 54/56/137
f 67/73/138 68/70/138 55/60/138
f 61/72/139 62/74/139 49/58/139
f 68/70/140 69/69/140 56/61/140
f 62/74/141 63/75/141 50/62/141
f 69/69/142 70/68/142 57/64/142
f 63/75/143 64/76/143 51/65/143
f 70/68/144 71/77/144 58/66/144
f 64/76/145 65/78/145 52/67/145
f 85/82/146 87/79/146 84/81/146
f 84/81/147 82/84/147 83/83/147
f 74/1/148 82/84/148 73/2/148
f 86/80/149 81/90/149 73/2/149
f 75/86/150 78/3/150 79/87/150
f 78/3/151 75/86/151 77/89/151
f 81/90/152 79/87/152 78/3/152
f 3/92/153 85/119/153 83/93/153
f 86/80/154 2/8/154 81/90/154
f 87/79/155 1/94/155 86/80/155
f 4/24/156 83/83/156 82/84/156
f 7/57/157 75/86/157 80/85/157
f 5/25/158 82/84/158 74/1/158
f 85/119/159 3/92/159 87/96/159
f 74/1/160 77/89/160 76/88/160
f 79/87/161 81/90/161 80/85/161
f 75/86/162 7/57/162 76/88/162
f 91/103/163 94/97/163 90/99/163
f 96/100/164 89/105/164 90/99/164
f 90/99/165 93/101/165 91/103/165
f 93/101/166 90/99/166 89/105/166
f 101/107/167 96/100/167 95/98/167
f 94/97/168 97/108/168 95/98/168
f 99/106/169 97/108/169 98/110/169
f 100/109/170 102/111/170 99/106/170
f 102/111/171 9/112/171 101/107/171
f 101/107/172 10/18/172 96/100/172
f 11/21/173 100/120/173 98/113/173
f 93/101/174 27/63/174 92/102/174
f 89/105/175 96/100/175 88/104/175
f 94/97/176 91/103/176 92/102/176
f 100/120/177 11/21/177 102/115/177
f 13/5/178 97/108/178 94/97/178
f 27/63/179 93/101/179 88/104/179
f 12/4/180 98/110/180 97/108/180
