# Blender v2.68 (sub 0) OBJ File: 'Pylon.blend'
# www.blender.org
v 0.500000 0.070566 -0.500000
v 0.500000 0.870566 -0.500000
v 0.326000 0.668689 -0.674000
v 0.326000 0.668689 -0.326000
v 0.674000 0.668689 -0.674000
v 0.674000 0.668689 -0.326000
v 0.250000 0.561402 -0.500000
v 0.500000 0.561402 -0.750000
v 0.750000 0.561402 -0.500000
v 0.500000 0.561402 -0.250000
vn -0.048011 0.628054 -0.776688
vn -0.776688 0.628054 -0.048011
vn 0.776688 0.628054 -0.048011
vn 0.048011 0.628054 0.776688
vn -0.556071 -0.377216 -0.740604
vn 0.740604 -0.377216 -0.556071
vn 0.556071 -0.377216 0.740604
vn -0.740603 -0.377216 0.556071
vn 0.048011 0.628054 -0.776688
vn -0.776688 0.628054 0.048011
vn 0.776688 0.628054 0.048011
vn -0.048011 0.628054 0.776688
vn -0.740604 -0.377216 -0.556071
vn 0.556071 -0.377216 -0.740604
vn 0.740604 -0.377216 0.556071
vn -0.556071 -0.377216 0.740603
s off
f 5//1 8//1 2//1
f 7//2 4//2 2//2
f 6//3 9//3 2//3
f 4//4 10//4 2//4
f 3//5 8//5 1//5
f 5//6 9//6 1//6
f 6//7 10//7 1//7
f 7//8 1//8 4//8
f 8//9 3//9 2//9
f 3//10 7//10 2//10
f 9//11 5//11 2//11
f 10//12 6//12 2//12
f 7//13 3//13 1//13
f 8//14 5//14 1//14
f 9//15 6//15 1//15
f 1//16 10//16 4//16
